<?xml version="1.0" encoding="utf-8"?>
<!-- Generator: Adobe Illustrator 19.0.0, SVG Export Plug-In . SVG Version: 6.00 Build 0)  -->
<svg version="1.1" xmlns="http://www.w3.org/2000/svg" xmlns:xlink="http://www.w3.org/1999/xlink" x="0px" y="0px"
	 viewBox="0 0 360 289.2" style="enable-background:new 0 0 360 289.2;" xml:space="preserve">
<style type="text/css">
	.st0{display:none;}
	.st1{display:inline;fill:url(#SVGID_1_);}
	.st2{display:inline;fill:url(#SVGID_2_);}
	.st3{display:inline;fill:url(#SVGID_3_);}
	.st4{fill:#F5831F;}
	.st5{display:inline;fill:none;stroke:#F5831F;stroke-width:2;stroke-miterlimit:10;}
	.st6{display:inline;fill:#FF7400;}
	.st7{font-family:'NeuzeitGro-Bol';}
	.st8{font-size:9.1445px;}
	.st9{display:inline;fill:#024C83;stroke:#024C83;stroke-miterlimit:10;}
	.st10{font-family:'OpenSans-Bold';}
	.st11{font-size:30px;}
</style>
<g id="wings" class="st0">
	<linearGradient id="SVGID_1_" gradientUnits="userSpaceOnUse" x1="161.8495" y1="176.6499" x2="345.7796" y2="70.4578">
		<stop  offset="0" style="stop-color:#FFFFFF"/>
		<stop  offset="0.3813" style="stop-color:#99E1CF"/>
		<stop  offset="0.8092" style="stop-color:#2CC09C"/>
		<stop  offset="1" style="stop-color:#00B388"/>
	</linearGradient>
	<path class="st1" d="M210.2,192.5c8.8-7.8,17.6-9.2,25.8-11.5c28.9-8.2,26.9-20.8,24.6-21.6c-2.3-0.8-7.3,2.1-21.7,5.5
		c63.5-20.2,53.7-31.4,50.8-32.2c-3.2-0.8-14.3,6.6-41.5,14.7c81.6-29.8,66.1-43.7,62.8-44c-3.9-0.4-15.4,12.1-53.6,27.8
		c90.5-44.1,75.8-59.5,72.5-59.5c-3.9,0-23.7,24.4-67.2,43.7c113.1-64.1,94.1-99.6,90.2-98.6c-3.6,0.9-25.2,54.8-132.1,108.7
		c-4.7,2.4-9.4,4.8-14.3,8.2c-0.5,0.4-0.5,1.1,0,1.5C210.3,137.9,220.1,149.7,210.2,192.5"/>
	<linearGradient id="SVGID_2_" gradientUnits="userSpaceOnUse" x1="198.3755" y1="169.9" x2="-20.0212" y2="98.9386">
		<stop  offset="0" style="stop-color:#FFFFFF"/>
		<stop  offset="0" style="stop-color:#FBFBFB"/>
		<stop  offset="0" style="stop-color:#F4F5F6"/>
		<stop  offset="0" style="stop-color:#F2F3F4"/>
		<stop  offset="0.1036" style="stop-color:#CED3D7"/>
		<stop  offset="0.2663" style="stop-color:#9DA6AE"/>
		<stop  offset="0.4201" style="stop-color:#75838D"/>
		<stop  offset="0.5605" style="stop-color:#596A76"/>
		<stop  offset="0.683" style="stop-color:#485A68"/>
		<stop  offset="0.774" style="stop-color:#425563"/>
	</linearGradient>
	<path class="st2" d="M191.1,165.6c0,0-2.9-9.9-9.6-8.1c-7,2.3-8.2,5-7.7,6.8c0.3,1.3,1.8,2,1.4,2.9c-0.1,0.3-1.3-0.5-2.4-0.4
		c-4.1,0.2-6.1-1.4-6.1-3.7c-0.1-4,3.7-4.7,9.4-8.4c2.5-1.6,3.8-4.3,3.8-5.7c0-1.5-2-3.2-3-0.6c-1.6,3.9-4,4.4-5.5,4.3
		c-3.9-0.2-4.6-8.4,7.4-13.9c0.5-0.4,0.7-1.8,0.1-2.2c-5.1-3.6-20-12.4-25-14.9C40,63.3,16.2,5.6,12.3,4.6
		c-4-1-23.2,37.9,95.2,106.3C61.9,90.3,41.3,64.4,37.2,64.4c-3.5,0-19.1,16,75.7,63.2c-40.1-16.8-52.1-30-56.2-29.6
		c-3.5,0.3-20,14.8,65.6,46.8c-28.6-8.8-40.2-16.6-43.5-15.8c-3.2,0.8-13.3,13.8,53.3,35.6c-15.1-3.7-20.4-6.7-22.8-6
		c-2.5,0.8,0.1,15.9,30.4,24.8c8.7,2.5,29.8,13,29.2,27.2c0.9,16.8-19.4,36.5-28.4,44.6c-0.4,0.4,0.1,1.1,0.6,0.7
		c13.6-8.7,50.3-35.4,50-73.9"/>
	<linearGradient id="SVGID_3_" gradientUnits="userSpaceOnUse" x1="76.8471" y1="244.5608" x2="162.6667" y2="244.5608">
		<stop  offset="0" style="stop-color:#00B388"/>
		<stop  offset="0.1908" style="stop-color:#2CC09C"/>
		<stop  offset="0.6187" style="stop-color:#99E1CF"/>
		<stop  offset="1" style="stop-color:#FFFFFF"/>
	</linearGradient>
	<path class="st3" d="M160.7,214.6c0,0-9.8,22.9-83.5,54.1c-3.1,1.3,19.3,25.4,72.8-35.4c4.1-4.6,9.1-11.4,12.8-17.5"/>
</g>
<g id="aruba_text">
	<g>
		<path class="st4" d="M180,208.9c-36.6,0-66.3-28.9-66.3-64.4c0-35.6,29.7-64.4,66.3-64.4c36.6,0,66.3,28.9,66.3,64.4
			C246.3,180,216.6,208.9,180,208.9 M180,28.3c-66,0-119.6,52.1-119.6,116.3c0,64.2,53.5,116.3,119.6,116.3c27.3,0,52.4-9,72.6-24
			c12.4,20.1,47,24,47,24v-18.7v-92.4v-5.1C299.6,80.4,246.1,28.3,180,28.3"/>
	</g>
	<g id="registered_symbol" class="st0">
		<circle class="st5" cx="318.8" cy="173.4" r="5.4"/>
		<text transform="matrix(1 0 0 1 316.2334 176.35)" class="st6 st7 st8">R</text>
	</g>
	<g class="st0">
		<text transform="matrix(1 0 0 1 34.4401 248.85)" class="st9 st10 st11">SE Enablement Lab</text>
	</g>
	<g class="st0">
	</g>
</g>
</svg>
